<?xml version="1.0" encoding="iso-8859-1"?>
<!-- Generator: Adobe Illustrator 16.0.0, SVG Export Plug-In . SVG Version: 6.00 Build 0)  -->
<!DOCTYPE svg PUBLIC "-//W3C//DTD SVG 1.1//EN" "http://www.w3.org/Graphics/SVG/1.1/DTD/svg11.dtd">
<svg xmlns="http://www.w3.org/2000/svg" xmlns:xlink="http://www.w3.org/1999/xlink" version="1.1" id="Capa_1" x="0px" y="0px" width="512px" height="512px" viewBox="0 0 122.7 122.7" style="enable-background:new 0 0 122.7 122.7;" xml:space="preserve">
<g>
	<path d="M8.75,53c0,3.9,3.1,7,7,7c1,0,1.9-0.2,2.7-0.6v57.3c0,3.3,2.7,6,6,6h73.7c3.3,0,6-2.7,6-6V59.4c0.9,0.4,1.8,0.6,2.8,0.6   c3.899,0,7-3.1,7-7c0-29.2-23.601-53-52.7-53C32.15,0,8.75,23.8,8.75,53z M95.051,70.6c-1.4,2-3.301,3.7-4.4,5.9s-1,4.6-0.9,7   c0.1,1.6,0.2,3.2-0.199,4.8c-0.4,1.5-1.5,3-3,3.5C84.35,92.4,81.95,91,80.85,89c-1.1-2-1.1-4.3-0.899-6.6   c0.3-3.101,2-14-4.5-11.801c-3.101,1.101-5.899,0.7-8.601-1.1c-2.1-1.4-4.5-3-7-2.3c-2.6,0.8-3.8,3.8-4.3,6.399   c-0.5,2.9-1,5.5-0.4,8.4c0.3,1.8,0.8,3.5,0.7,5.3s-0.9,3.601-2.4,4.601c-1.6,1-3.7,0.8-5.3-0.2c-1.6-1-2.6-2.7-3.1-4.4   c-1.2-4.399,2.3-16.3-4.5-17.8c-2-0.4-3.5,0.6-4.4,2.3c-0.6,1-1.1,2.101-2.2,2.5c-3.4,1.2-8-2.2-8-7.1c0-2.3-0.1-4.5-0.1-6.8v-4   c0-1.7,1.4-3.2,3.2-3.2h64.7c1.801,0,3.2,1.4,3.2,3.2v4c0,0.1,0,0.1,0,0.2C96.85,60.5,97.25,67.5,95.051,70.6z M61.35,14   c19.1,0,35,14.1,38.1,32.5c-0.399-0.1-0.899-0.1-1.3-0.1h-73.7c-0.4,0-0.8,0-1.2,0.1C26.35,28.1,42.25,14,61.35,14z" fill="#FFFFFF"/>
</g>
<g>
</g>
<g>
</g>
<g>
</g>
<g>
</g>
<g>
</g>
<g>
</g>
<g>
</g>
<g>
</g>
<g>
</g>
<g>
</g>
<g>
</g>
<g>
</g>
<g>
</g>
<g>
</g>
<g>
</g>
</svg>
