<?xml version="1.0" encoding="iso-8859-1"?>
<!-- Generator: Adobe Illustrator 19.0.0, SVG Export Plug-In . SVG Version: 6.00 Build 0)  -->
<svg xmlns="http://www.w3.org/2000/svg" xmlns:xlink="http://www.w3.org/1999/xlink" version="1.1" id="Capa_1" x="0px" y="0px" viewBox="0 0 452.986 452.986" style="enable-background:new 0 0 452.986 452.986;" xml:space="preserve" width="512px" height="512px">
<g>
	<g>
		<g>
			<path d="M0.032,0v452.986h452.922V0H0.032z M403.212,24.655c8.132,0,14.69,6.558,14.69,14.647     s-6.558,14.668-14.69,14.668c-8.089,0-14.625-6.579-14.625-14.668C388.565,31.234,395.123,24.655,403.212,24.655z      M352.003,24.655c8.089,0,14.647,6.558,14.647,14.647s-6.558,14.668-14.647,14.668c-8.067,0-14.668-6.579-14.668-14.668     C337.335,31.234,343.957,24.655,352.003,24.655z M417.923,418.559H35.02V85.701h382.903V418.559L417.923,418.559z" fill="#26ac39"/>
			<path d="M119.103,358.571c-3.236,6.816-4.357,11.497-2.588,13.223c1.661,1.682,6.385,0.626,13.158-2.502     l-0.906,0.906l33.974,33.909l8.65-8.585l-15.811-41.588c28.064-19.047,66.848-50.648,103.044-86.046l88.246,88.181l15.941-15.941     L299.5,225.242c44.522-49.462,71.313-90.662,62.771-99.247c-8.542-8.564-49.785,18.27-99.269,62.749l-114.778-63.289     l-15.941,16.049l88.16,88.16c-35.462,36.239-67.042,75.045-86.024,103.044l-41.653-15.747l-8.65,8.671l33.996,33.888     L119.103,358.571z" fill="#26ac39"/>
		</g>
	</g>
	<g>
	</g>
	<g>
	</g>
	<g>
	</g>
	<g>
	</g>
	<g>
	</g>
	<g>
	</g>
	<g>
	</g>
	<g>
	</g>
	<g>
	</g>
	<g>
	</g>
	<g>
	</g>
	<g>
	</g>
	<g>
	</g>
	<g>
	</g>
	<g>
	</g>
</g>
<g>
</g>
<g>
</g>
<g>
</g>
<g>
</g>
<g>
</g>
<g>
</g>
<g>
</g>
<g>
</g>
<g>
</g>
<g>
</g>
<g>
</g>
<g>
</g>
<g>
</g>
<g>
</g>
<g>
</g>
</svg>
