<?xml version="1.0" encoding="utf-8"?>
<!-- Generated by IcoMoon.io -->
<!DOCTYPE svg PUBLIC "-//W3C//DTD SVG 1.1//EN" "http://www.w3.org/Graphics/SVG/1.1/DTD/svg11.dtd">
<svg version="1.1" xmlns="http://www.w3.org/2000/svg" xmlns:xlink="http://www.w3.org/1999/xlink" width="32" height="32" viewBox="0 0 32 32">
<path fill="#a46499" d="M1.2 0h29.6c0.663 0 1.2 0.537 1.2 1.2v29.6c0 0.663-0.537 1.2-1.2 1.2h-29.6c-0.663 0-1.2-0.537-1.2-1.2v-29.6c0-0.663 0.537-1.2 1.2-1.2z"></path>
<path fill="#fff" d="M20.165 14.014c-0.347-0.624-0.867-1-1.541-1.149-0.183-0.040-0.356-0.059-0.52-0.059-0.925 0-1.676 0.495-2.264 1.485-0.501 0.842-0.751 1.772-0.751 2.792 0 0.762 0.154 1.416 0.462 1.96 0.347 0.624 0.857 1 1.541 1.149 0.183 0.040 0.356 0.059 0.52 0.059 0.934 0 1.686-0.495 2.264-1.485 0.501-0.852 0.751-1.782 0.751-2.802 0-0.772-0.154-1.416-0.462-1.951zM26.204 14.014c-0.347-0.624-0.857-1-1.541-1.149-0.183-0.040-0.356-0.059-0.52-0.059-0.925 0-1.676 0.495-2.264 1.485-0.501 0.842-0.751 1.772-0.751 2.792 0 0.762 0.154 1.416 0.462 1.96 0.347 0.624 0.857 1 1.541 1.149 0.183 0.040 0.356 0.059 0.52 0.059 0.934 0 1.686-0.495 2.264-1.485 0.501-0.852 0.751-1.782 0.751-2.802 0-0.772-0.154-1.416-0.462-1.951zM5.495 12.459c0.135-0.188 0.337-0.287 0.607-0.307 0.491-0.040 0.771 0.198 0.838 0.713 0.299 2.069 0.626 3.822 0.973 5.258l2.109-4.129c0.193-0.376 0.433-0.574 0.722-0.594 0.424-0.030 0.684 0.248 0.79 0.832 0.241 1.317 0.549 2.436 0.915 3.386 0.25-2.515 0.674-4.327 1.271-5.446 0.144-0.277 0.356-0.416 0.636-0.436 0.222-0.020 0.424 0.050 0.607 0.198s0.279 0.337 0.299 0.564c0.010 0.178-0.019 0.327-0.096 0.475-0.376 0.713-0.684 1.911-0.934 3.574-0.241 1.614-0.328 2.871-0.27 3.772 0.019 0.248-0.019 0.465-0.116 0.654-0.116 0.218-0.289 0.337-0.511 0.356-0.25 0.020-0.511-0.099-0.761-0.366-0.896-0.941-1.609-2.347-2.129-4.218-0.626 1.267-1.088 2.218-1.387 2.852-0.568 1.119-1.050 1.693-1.454 1.723-0.26 0.020-0.482-0.208-0.674-0.683-0.491-1.297-1.021-3.802-1.589-7.515-0.029-0.257 0.019-0.485 0.154-0.663zM18.951 16.757c-0.135 0.654-0.376 1.139-0.732 1.465-0.279 0.257-0.539 0.366-0.78 0.317-0.231-0.049-0.424-0.257-0.568-0.644-0.116-0.307-0.173-0.614-0.173-0.901 0-0.248 0.019-0.495 0.067-0.723 0.087-0.406 0.25-0.802 0.511-1.178 0.318-0.485 0.655-0.683 1.002-0.614 0.231 0.050 0.424 0.257 0.568 0.644 0.116 0.307 0.173 0.614 0.173 0.901 0 0.257-0.019 0.505-0.067 0.733zM24.991 16.757c-0.135 0.654-0.376 1.139-0.732 1.465-0.279 0.257-0.539 0.366-0.78 0.317-0.231-0.049-0.424-0.257-0.568-0.644-0.116-0.307-0.173-0.614-0.173-0.901 0-0.248 0.019-0.495 0.067-0.723 0.087-0.406 0.25-0.802 0.511-1.178 0.318-0.485 0.655-0.683 1.002-0.614 0.231 0.050 0.424 0.257 0.568 0.644 0.116 0.307 0.173 0.614 0.173 0.901 0 0.257-0.029 0.505-0.067 0.733z"></path>
</svg>
