<?xml version="1.0" encoding="utf-8"?>
<!-- Generator: Adobe Illustrator 16.0.0, SVG Export Plug-In . SVG Version: 6.00 Build 0)  -->
<!DOCTYPE svg PUBLIC "-//W3C//DTD SVG 1.1//EN" "http://www.w3.org/Graphics/SVG/1.1/DTD/svg11.dtd">
<svg version="1.1" id="Layer_1" xmlns="http://www.w3.org/2000/svg" xmlns:xlink="http://www.w3.org/1999/xlink" x="0px" y="0px"
	 width="96.333px" height="96.333px" viewBox="0 0 96.333 96.333" enable-background="new 0 0 96.333 96.333" xml:space="preserve">
<g>
	<circle fill-rule="evenodd" clip-rule="evenodd" fill="#F69321" cx="48.167" cy="48.167" r="48.167"/>
	<g>
		<path fill="#FFFFFF" d="M22.818,67.666h1.95v-1.951h-1.95c-1.077,0-1.949-0.872-1.949-1.949V24.769c0-1.077,0.873-1.95,1.949-1.95
			h42.897c1.076,0,1.949,0.873,1.949,1.95v1.95h1.95v-1.95c0-2.154-1.746-3.9-3.899-3.9H22.818c-2.153,0-3.899,1.746-3.899,3.9
			v38.997C18.919,65.919,20.665,67.666,22.818,67.666z"/>
		<path fill="#FFFFFF" d="M22.818,24.769h1.95v1.95h-1.95V24.769z"/>
		<path fill="#FFFFFF" d="M26.719,24.769h1.949v1.95h-1.949V24.769z"/>
		<path fill="#FFFFFF" d="M30.618,24.769h1.95v1.95h-1.95V24.769z"/>
		<path fill="#FFFFFF" d="M26.719,71.564c0,2.154,1.746,3.9,3.899,3.9h42.896c2.153,0,3.899-1.746,3.899-3.9V32.568
			c0-2.154-1.746-3.9-3.899-3.9H30.618c-2.153,0-3.899,1.746-3.899,3.9V71.564z M28.668,32.568c0-1.077,0.873-1.95,1.95-1.95h42.896
			c1.077,0,1.95,0.873,1.95,1.95v38.996c0,1.078-0.873,1.951-1.95,1.951H30.618c-1.077,0-1.95-0.873-1.95-1.951V32.568z"/>
		<path fill="#FFFFFF" d="M30.618,32.568h1.95v1.95h-1.95V32.568z"/>
		<path fill="#FFFFFF" d="M34.518,32.568h1.95v1.95h-1.95V32.568z"/>
		<path fill="#FFFFFF" d="M38.417,32.568h1.95v1.95h-1.95V32.568z"/>
		<path fill="#FFFFFF" d="M30.618,36.467h42.896v1.95H30.618V36.467z"/>
		<path fill-rule="evenodd" clip-rule="evenodd" fill="#FFFFFF" d="M52.634,41.303c0.146,0.013,0.293,0.029,0.439,0.037
			c0.626,0.035,1.244,0.123,1.859,0.243c0.886,0.172,1.747,0.426,2.584,0.76c1.438,0.574,2.754,1.353,3.948,2.337
			c0.633,0.522,1.222,1.09,1.759,1.709c0.935,1.074,1.703,2.255,2.298,3.549c0.416,0.906,0.747,1.84,0.962,2.813
			c0.115,0.523,0.198,1.055,0.276,1.586c0.101,0.69,0.132,1.387,0.107,2.084c-0.017,0.481-0.058,0.963-0.105,1.443
			c-0.074,0.75-0.23,1.486-0.433,2.213c-0.211,0.758-0.481,1.49-0.81,2.204c-0.381,0.826-0.833,1.61-1.358,2.353
			c-0.467,0.658-0.982,1.275-1.549,1.852c-0.752,0.765-1.576,1.44-2.475,2.027c-1.014,0.662-2.094,1.193-3.238,1.59
			c-0.721,0.251-1.455,0.449-2.207,0.577c-0.453,0.077-0.91,0.138-1.367,0.173c-0.509,0.039-1.021,0.064-1.531,0.055
			c-0.511-0.01-1.02-0.059-1.527-0.107c-0.733-0.071-1.451-0.227-2.159-0.424c-0.793-0.219-1.562-0.506-2.307-0.855
			c-0.944-0.441-1.831-0.979-2.662-1.609c-0.9-0.683-1.713-1.457-2.437-2.325c-0.802-0.962-1.474-2.006-2.013-3.134
			c-0.52-1.088-0.905-2.222-1.134-3.404c-0.105-0.542-0.17-1.093-0.232-1.643c-0.088-0.787-0.076-1.578-0.023-2.368
			c0.084-1.259,0.334-2.482,0.74-3.675c0.561-1.648,1.39-3.152,2.481-4.511c0.636-0.793,1.345-1.515,2.129-2.161
			c1.079-0.889,2.258-1.613,3.541-2.171c1.043-0.453,2.125-0.784,3.244-0.982c0.449-0.08,0.904-0.124,1.358-0.176
			c0.202-0.023,0.406-0.027,0.609-0.041c0.034-0.003,0.067-0.012,0.102-0.018C51.881,41.303,52.257,41.303,52.634,41.303z
			 M52.069,41.98c-7.802,0.005-14.128,6.346-14.13,14.121c-0.002,7.762,6.272,14.068,13.997,14.133
			c7.909,0.066,14.256-6.342,14.254-14.125C66.188,48.313,59.857,41.992,52.069,41.98z"/>
		<path fill-rule="evenodd" clip-rule="evenodd" fill="#FFFFFF" d="M41.473,49.121c4.245-6.556,13.488-7.62,19.176-2.403
			c-0.139,0.009-0.271,0.012-0.403,0.026c-0.525,0.055-0.96,0.292-1.309,0.682c-0.408,0.455-0.603,0.999-0.593,1.607
			c0.009,0.519,0.158,1.007,0.4,1.461c0.258,0.481,0.54,0.951,0.818,1.422c0.456,0.772,0.821,1.58,0.976,2.472
			c0.09,0.521,0.11,1.045,0.066,1.574c-0.1,1.211-0.477,2.352-0.888,3.484c-0.152,0.418-0.268,0.85-0.396,1.277
			c-0.268,0.897-0.531,1.795-0.797,2.693c-0.032,0.109-0.066,0.22-0.12,0.334c-1.528-4.527-3.058-9.056-4.593-13.6
			c0.131-0.01,0.25-0.02,0.37-0.027c0.359-0.027,0.719-0.053,1.078-0.081c0.263-0.021,0.459-0.21,0.485-0.464
			c0.03-0.285-0.104-0.526-0.348-0.579c-0.137-0.029-0.286-0.016-0.429-0.008c-0.319,0.019-0.638,0.049-0.956,0.069
			c-0.375,0.024-0.752,0.05-1.127,0.06c-0.539,0.013-1.079,0.018-1.619,0.015c-0.329-0.001-0.658-0.019-0.987-0.038
			c-0.444-0.026-0.888-0.06-1.332-0.089c-0.196-0.013-0.396-0.044-0.59-0.026c-0.284,0.027-0.465,0.277-0.444,0.565
			c0.021,0.304,0.204,0.476,0.507,0.496c0.409,0.028,0.818,0.063,1.228,0.1c0.03,0.003,0.072,0.044,0.084,0.076
			c0.354,0.947,0.704,1.896,1.054,2.845c0.3,0.811,0.599,1.621,0.895,2.434c0.017,0.045,0.017,0.104,0.001,0.148
			c-0.459,1.381-0.921,2.76-1.382,4.14c-0.447,1.337-0.895,2.675-1.342,4.012c-0.007,0.021-0.016,0.04-0.034,0.085
			c-1.548-4.588-3.091-9.154-4.637-13.734c0.125-0.008,0.24-0.016,0.354-0.024c0.363-0.026,0.725-0.056,1.088-0.081
			c0.275-0.02,0.47-0.205,0.496-0.506c0.021-0.227-0.1-0.479-0.348-0.536c-0.136-0.031-0.285-0.02-0.427-0.011
			c-0.3,0.018-0.6,0.05-0.899,0.069c-0.413,0.026-0.827,0.048-1.24,0.066c-0.555,0.025-1.11,0.051-1.665-0.004
			C41.593,49.117,41.539,49.121,41.473,49.121z"/>
		<path fill-rule="evenodd" clip-rule="evenodd" fill="#FFFFFF" d="M52.278,57.211c1.332,3.632,2.654,7.237,3.98,10.853
			c-2.556,0.908-5.141,0.996-7.763,0.209C49.756,64.589,51.013,60.914,52.278,57.211z"/>
		<path fill-rule="evenodd" clip-rule="evenodd" fill="#FFFFFF" d="M40.47,50.933c2.025,5.538,4.042,11.055,6.059,16.572
			c-0.46-0.089-2.375-1.408-3.201-2.197c-0.949-0.908-1.75-1.93-2.387-3.078c-0.635-1.145-1.082-2.359-1.336-3.645
			c-0.255-1.287-0.309-2.584-0.162-3.889C39.59,53.396,39.933,52.15,40.47,50.933z"/>
		<path fill-rule="evenodd" clip-rule="evenodd" fill="#FFFFFF" d="M58.449,67.062c0.092-0.264,0.177-0.508,0.261-0.752
			c0.65-1.875,1.301-3.75,1.951-5.625c0.555-1.598,1.111-3.193,1.664-4.793c0.199-0.576,0.405-1.152,0.582-1.737
			c0.172-0.571,0.272-1.161,0.337-1.756c0.05-0.462,0.068-0.927,0.049-1.39c-0.011-0.287-0.053-0.574-0.08-0.861
			c-0.003-0.029-0.009-0.061-0.013-0.098c0.303,0.295,1.113,2.506,1.334,3.645c0.251,1.292,0.301,2.594,0.146,3.9
			c-0.154,1.301-0.5,2.547-1.043,3.739c-0.547,1.196-1.261,2.282-2.143,3.257C60.612,65.566,59.604,66.385,58.449,67.062z"/>
	</g>
</g>
</svg>
