<?xml version="1.0" encoding="utf-8"?>
<!-- Generator: Adobe Illustrator 16.0.0, SVG Export Plug-In . SVG Version: 6.00 Build 0)  -->
<!DOCTYPE svg PUBLIC "-//W3C//DTD SVG 1.1//EN" "http://www.w3.org/Graphics/SVG/1.1/DTD/svg11.dtd">
<svg version="1.1" id="Layer_1" xmlns="http://www.w3.org/2000/svg" xmlns:xlink="http://www.w3.org/1999/xlink" x="0px" y="0px"
	 width="96.333px" height="96.333px" viewBox="0 0 96.333 96.333" enable-background="new 0 0 96.333 96.333" xml:space="preserve">
<g>
	<circle fill-rule="evenodd" clip-rule="evenodd" fill="#EB2227" cx="48.167" cy="48.167" r="48.167"/>
	<g>
		<g>
			<polygon fill="#F69321" points="67.149,37.78 38.6,54.091 10.05,37.78 38.6,21.567 			"/>
			<polygon fill="#FCEE21" points="38.6,54.091 20.88,43.968 10.05,50.117 38.6,66.429 67.149,50.117 56.32,43.968 			"/>
			<g>
				<polygon fill="#414142" points="38.6,66.429 20.88,56.304 10.05,62.455 38.6,78.767 67.149,62.455 56.32,56.304 				"/>
			</g>
		</g>
		<g>
			<path fill="#FFFFFF" d="M81.958,56.58h3.46c0.479,0,0.865-0.387,0.865-0.865c0-0.477-0.387-0.865-0.865-0.865h-3.46
				c-0.479,0-0.865,0.389-0.865,0.865C81.093,56.193,81.479,56.58,81.958,56.58z"/>
			<path fill="#FFFFFF" d="M85.418,47.929c-0.479,0-0.865,0.388-0.865,0.865v3.461c0,0.479,0.387,0.865,0.865,0.865
				s0.865-0.387,0.865-0.865v-3.461C86.283,48.316,85.896,47.929,85.418,47.929z"/>
			<path fill="#FFFFFF" d="M81.958,32.357h3.46c0.479,0,0.865-0.387,0.865-0.865c0-0.478-0.387-0.865-0.865-0.865h-3.46
				c-0.479,0-0.865,0.387-0.865,0.865C81.093,31.971,81.479,32.357,81.958,32.357z"/>
			<path fill="#FFFFFF" d="M85.418,34.088c-0.479,0-0.865,0.387-0.865,0.865v3.46c0,0.479,0.387,0.865,0.865,0.865
				s0.865-0.387,0.865-0.865v-3.46C86.283,34.475,85.896,34.088,85.418,34.088z"/>
			<path fill="#FFFFFF" d="M71.576,54.851h-3.46c-0.479,0-0.865,0.387-0.865,0.863c0,0.479,0.387,0.865,0.865,0.865h3.46
				c0.479,0,0.865-0.387,0.865-0.865C72.441,55.238,72.055,54.851,71.576,54.851z"/>
			<path fill="#FFFFFF" d="M64.656,54.851h-3.461c-0.479,0-0.865,0.387-0.865,0.863c0,0.479,0.387,0.865,0.865,0.865h3.461
				c0.478,0,0.864-0.387,0.864-0.865C65.521,55.238,65.134,54.851,64.656,54.851z"/>
			<path fill="#FFFFFF" d="M85.418,41.009c-0.479,0-0.865,0.387-0.865,0.865v3.46c0,0.478,0.387,0.865,0.865,0.865
				s0.865-0.387,0.865-0.865v-3.46C86.283,41.396,85.896,41.009,85.418,41.009z"/>
			<path fill="#FFFFFF" d="M75.037,32.357h3.46c0.479,0,0.865-0.387,0.865-0.865c0-0.478-0.387-0.865-0.865-0.865h-3.46
				c-0.479,0-0.865,0.387-0.865,0.865C74.172,31.971,74.559,32.357,75.037,32.357z"/>
			<path fill="#FFFFFF" d="M60.33,31.492c0,0.479,0.387,0.865,0.865,0.865h3.461c0.478,0,0.864-0.387,0.864-0.865
				c0-0.478-0.387-0.865-0.864-0.865h-3.461C60.717,30.627,60.33,31.014,60.33,31.492z"/>
			<path fill="#FFFFFF" d="M75.037,56.58h3.46c0.479,0,0.865-0.387,0.865-0.865c0-0.477-0.387-0.865-0.865-0.865h-3.46
				c-0.479,0-0.865,0.389-0.865,0.865C74.172,56.193,74.559,56.58,75.037,56.58z"/>
			<path fill="#FFFFFF" d="M67.251,31.492c0,0.479,0.387,0.865,0.865,0.865h3.46c0.479,0,0.865-0.387,0.865-0.865
				c0-0.478-0.387-0.865-0.865-0.865h-3.46C67.638,30.627,67.251,31.014,67.251,31.492z"/>
			<path fill="#FFFFFF" d="M71.64,37.37l-0.014,1.04l-0.073,5.592c-0.006,0.505,0.512,0.848,0.974,0.645l1.722-0.755l1.536,3.5
				c0.143,0.324,0.46,0.518,0.794,0.518c0.115,0,0.233-0.023,0.347-0.073c0.437-0.192,0.636-0.703,0.444-1.14l-1.536-3.5l1.72-0.755
				c0.463-0.203,0.561-0.816,0.185-1.153l-4.54-4.068l-0.4-0.358C72.354,36.464,71.647,36.773,71.64,37.37z"/>
		</g>
	</g>
</g>
</svg>
