<?xml version="1.0" encoding="utf-8"?>
<!-- Generator: Adobe Illustrator 16.0.0, SVG Export Plug-In . SVG Version: 6.00 Build 0)  -->
<!DOCTYPE svg PUBLIC "-//W3C//DTD SVG 1.1//EN" "http://www.w3.org/Graphics/SVG/1.1/DTD/svg11.dtd">
<svg version="1.1" id="Layer_1" xmlns="http://www.w3.org/2000/svg" xmlns:xlink="http://www.w3.org/1999/xlink" x="0px" y="0px"
	 width="96.333px" height="96.333px" viewBox="0 0 96.333 96.333" enable-background="new 0 0 96.333 96.333" xml:space="preserve">
<g>
	<circle fill-rule="evenodd" clip-rule="evenodd" fill="#F16724" cx="48.167" cy="48.167" r="48.167"/>
	<g>
		<circle fill="#FFFFFF" cx="48.166" cy="63.318" r="1.318"/>
		<g>
			<g>
				<path fill="#FFFFFF" d="M74.49,21.804H21.842c-2.234,0-4.051,1.817-4.051,4.05v33.413c0,0.559,0.454,1.012,1.012,1.012h58.727
					c0.559,0,1.013-0.453,1.013-1.012V25.854C78.542,23.621,76.725,21.804,74.49,21.804z M76.518,58.255H19.816V25.854
					c0-1.117,0.909-2.026,2.025-2.026H74.49c1.117,0,2.027,0.909,2.027,2.026V58.255z"/>
			</g>
		</g>
		<g>
			<g>
				<path fill="#FFFFFF" d="M77.529,58.255H18.803c-0.558,0-1.012,0.453-1.012,1.012v5.061c0,2.234,1.817,4.053,4.051,4.053H74.49
					c2.234,0,4.052-1.818,4.052-4.053v-5.061C78.542,58.708,78.088,58.255,77.529,58.255z M76.518,64.328
					c0,1.119-0.91,2.027-2.027,2.027H21.842c-1.117,0-2.025-0.908-2.025-2.027v-4.049h56.701V64.328L76.518,64.328z"/>
			</g>
		</g>
		<g>
			<g>
				<path fill="#FFFFFF" d="M73.479,25.853H22.854c-0.559,0-1.013,0.454-1.013,1.012v32.402c0,0.559,0.454,1.012,1.013,1.012h50.626
					c0.56,0,1.013-0.453,1.013-1.012V26.865C74.492,26.307,74.039,25.853,73.479,25.853z M72.467,58.255H23.866V27.878h48.601
					V58.255z"/>
			</g>
		</g>
		<g>
			<g>
				<path fill="#FFFFFF" d="M61.33,74.455H35.003c-1.674,0-3.037,1.363-3.037,3.037c0,1.676,1.362,3.037,3.037,3.037H61.33
					c1.674,0,3.036-1.361,3.036-3.037C64.366,75.818,63.004,74.455,61.33,74.455z M61.33,78.505H35.003
					c-0.559,0-1.012-0.455-1.012-1.014c0-0.557,0.453-1.012,1.012-1.012H61.33c0.559,0,1.012,0.455,1.012,1.012
					C62.342,78.05,61.889,78.505,61.33,78.505z"/>
			</g>
		</g>
		<g>
			<g>
				<path fill="#FFFFFF" d="M59.304,74.455c-3.358,0-5.063-2.385-5.063-7.088c0-0.559-0.454-1.012-1.013-1.012H43.104
					c-0.559,0-1.012,0.453-1.012,1.012c0,4.703-1.703,7.088-5.063,7.088c-0.559,0-1.012,0.453-1.012,1.012s0.453,1.014,1.012,1.014
					h22.275c0.56,0,1.013-0.455,1.013-1.014S59.863,74.455,59.304,74.455z M41.96,74.455c1.247-1.381,1.981-3.438,2.129-6.074h8.156
					c0.146,2.637,0.88,4.693,2.128,6.074H41.96z"/>
			</g>
		</g>
		<g>
			<path fill="#FFFFFF" d="M30.9,53.216c3.259-4.002,6.64-7.921,10.556-11.298c-0.375-0.205-0.751-0.408-1.125-0.611
				c-0.336,3.252-0.59,6.513-0.654,9.783c-0.014,0.662,0.814,1.07,1.248,0.482c2.798-3.801,5.988-7.291,8.956-10.957
				c-0.414-0.1-0.829-0.198-1.243-0.298c0.777,3.558-0.652,7.235-0.969,10.774c-0.053,0.59,0.654,1.008,1.126,0.609
				c6.488-5.457,10.637-13.188,16.684-19.068c0.636-0.618-0.231-1.701-0.873-1.077c-6.046,5.877-10.203,13.618-16.683,19.069
				c0.376,0.205,0.75,0.408,1.126,0.611c0.328-3.676,1.767-7.443,0.957-11.145c-0.131-0.596-0.857-0.773-1.242-0.296
				c-2.968,3.666-6.159,7.155-8.956,10.957c0.415,0.16,0.833,0.322,1.249,0.482c0.064-3.27,0.317-6.531,0.654-9.782
				c0.061-0.588-0.662-1.012-1.126-0.611c-4.003,3.452-7.469,7.463-10.8,11.555C29.217,53.091,30.339,53.906,30.9,53.216
				L30.9,53.216z"/>
		</g>
	</g>
</g>
</svg>
