<?xml version="1.0" encoding="iso-8859-1"?>
<!-- Generator: Adobe Illustrator 19.0.0, SVG Export Plug-In . SVG Version: 6.00 Build 0)  -->
<svg xmlns="http://www.w3.org/2000/svg" xmlns:xlink="http://www.w3.org/1999/xlink" version="1.1" id="Capa_1" x="0px" y="0px" viewBox="0 0 452.986 452.986" style="enable-background:new 0 0 452.986 452.986;" xml:space="preserve" width="512px" height="512px">
<g>
	<g>
		<g>
			<path d="M11.228,0v452.986h430.531V0H11.228z M226.461,333.247c-100.973,0-182.834-106.56-182.834-106.56     s81.861-106.56,182.834-106.56c100.994,0,182.856,106.56,182.856,106.56S327.455,333.247,226.461,333.247z" fill="#26ac39"/>
			<path d="M223.117,143.316c-46.054,0-83.35,37.339-83.35,83.371s37.296,83.371,83.35,83.371s83.35-37.296,83.35-83.371     C306.467,180.655,269.171,143.316,223.117,143.316z M258.601,230.031c-15.229,0-27.589-12.36-27.589-27.589     c0-15.251,12.36-27.589,27.589-27.589c15.229,0,27.589,12.339,27.589,27.589C286.212,217.671,273.83,230.031,258.601,230.031z" fill="#26ac39"/>
		</g>
	</g>
	<g>
	</g>
	<g>
	</g>
	<g>
	</g>
	<g>
	</g>
	<g>
	</g>
	<g>
	</g>
	<g>
	</g>
	<g>
	</g>
	<g>
	</g>
	<g>
	</g>
	<g>
	</g>
	<g>
	</g>
	<g>
	</g>
	<g>
	</g>
	<g>
	</g>
</g>
<g>
</g>
<g>
</g>
<g>
</g>
<g>
</g>
<g>
</g>
<g>
</g>
<g>
</g>
<g>
</g>
<g>
</g>
<g>
</g>
<g>
</g>
<g>
</g>
<g>
</g>
<g>
</g>
<g>
</g>
</svg>
