<?xml version="1.0" encoding="utf-8"?>
<!-- Generated by IcoMoon.io -->
<!DOCTYPE svg PUBLIC "-//W3C//DTD SVG 1.1//EN" "http://www.w3.org/Graphics/SVG/1.1/DTD/svg11.dtd">
<svg version="1.1" xmlns="http://www.w3.org/2000/svg" xmlns:xlink="http://www.w3.org/1999/xlink" width="32" height="32" viewBox="0 0 32 32">
<path fill="#9fdae7" d="M1.2 0h29.6c0.663 0 1.2 0.537 1.2 1.2v29.6c0 0.663-0.537 1.2-1.2 1.2h-29.6c-0.663 0-1.2-0.537-1.2-1.2v-29.6c0-0.663 0.537-1.2 1.2-1.2z"></path>
<path fill="#c4b6a1" d="M9.531 27.304c0.011-0.008 0.023-0.016 0.034-0.024h-0.033c-0 0.008-0.001 0.016-0.002 0.024z"></path>
<path fill="#aa9678" d="M21.22 27.28h-0.033c0.011 0.008 0.023 0.016 0.034 0.024-0-0.008-0.001-0.016-0.001-0.024z"></path>
<path fill="#786453" d="M15.373 26.991h0v0.289h-0v-0.289z"></path>
<path fill="#525353" d="M19.424 24.713c-0.046-0.048-0.092-0.1-0.141-0.159 0.049 0.059 0.096 0.111 0.141 0.159z"></path>
<path fill="#aa9678" d="M19.74 25.032c0 0 0.001 0.003 0.003 0.009-0.002-0.006-0.003-0.009-0.003-0.009s-0.143-0.112-0.325-0.319c0.182 0.206 0.325 0.319 0.325 0.319z"></path>
<path fill="#fff" d="M24.053 12.416v0z"></path>
<path fill="#fff" d="M24.621 16.432c0-0.002 0-0.003 0-0.005 0 0.002-0 0.003-0 0.005z"></path>
<path fill="#bbbcbd" d="M24.622 16.428c0-0.002-0-0.003-0-0.005 0 0.002 0 0.003 0 0.005z"></path>
<path fill="#676a6a" d="M24.606 16.209c0 0.004 0.002 0.007 0.002 0.011 0 0.002 0.001 0.004 0.001 0.007v0.001c0.007 0.053 0.009 0.109 0.010 0.165 0 0.010 0.002 0.020 0.002 0.030 0 0.001 0 0.003 0 0.004s-0 0.003-0 0.004c-0 0.011-0.002 0.021-0.002 0.032-0.001 0.055-0.004 0.11-0.010 0.162v0.001c-0 0.003-0.001 0.005-0.002 0.008-0 0.004-0.002 0.008-0.002 0.012-0.008 0.057-0.018 0.112-0.032 0.165-0 0-0 0.001-0 0.001v0l0.002-0.002c0-0.001 0.001-0.002 0.001-0.003v0l0.369-0.382-0.372-0.385c0 0 0 0.001 0 0.001 0.014 0.054 0.024 0.11 0.032 0.168z"></path>
<path fill="#000" d="M24.605 16.646c0.001-0.007 0.003-0.014 0.004-0.021 0.006-0.052 0.009-0.107 0.010-0.162 0-0.012 0.002-0.024 0.002-0.037s-0.002-0.023-0.002-0.034c-0.001-0.056-0.004-0.112-0.010-0.165-0.001-0.006-0.003-0.012-0.003-0.018-0.008-0.058-0.019-0.115-0.032-0.168-0.005-0.019-0.012-0.035-0.017-0.053-0.033-0.109-0.079-0.206-0.133-0.286-0.007-0.011-0.015-0.021-0.022-0.031-0.015-0.020-0.030-0.039-0.046-0.056-0.023-0.025-0.048-0.048-0.073-0.067-0.010-0.007-0.020-0.012-0.030-0.019-0.022-0.014-0.045-0.026-0.068-0.036-0.010-0.004-0.020-0.008-0.030-0.011-0.033-0.010-0.067-0.017-0.101-0.017s-0.068 0.007-0.101 0.017c-0.010 0.003-0.020 0.007-0.030 0.011-0.023 0.009-0.046 0.022-0.068 0.036-0.010 0.006-0.020 0.011-0.030 0.019-0.025 0.019-0.050 0.042-0.073 0.067-0.016 0.017-0.031 0.036-0.045 0.056-0.008 0.010-0.015 0.021-0.022 0.031-0.054 0.080-0.1 0.176-0.133 0.286-0.001 0.004-0.003 0.009-0.004 0.013-0.015 0.050-0.026 0.103-0.036 0.157-0.003 0.017-0.007 0.032-0.009 0.049-0.009 0.061-0.013 0.124-0.014 0.188-0 0.009-0.002 0.017-0.002 0.026h0.002c0 0.531 0.254 0.962 0.568 0.962 0.054 0 0.106-0.014 0.155-0.038 0.008-0.004 0.016-0.008 0.024-0.012 0.020-0.012 0.041-0.024 0.060-0.040 0.011-0.009 0.021-0.019 0.031-0.028 0.025-0.023 0.049-0.049 0.071-0.078 0.016-0.020 0.031-0.041 0.045-0.064 0.009-0.015 0.018-0.030 0.026-0.046 0.016-0.029 0.031-0.059 0.044-0.091 0.005-0.012 0.010-0.023 0.015-0.035 0.017-0.045 0.032-0.092 0.045-0.141 0.014-0.053 0.024-0.108 0.032-0.165v0 0zM24.074 16.298c-0.118 0-0.213-0.162-0.213-0.361s0.095-0.361 0.213-0.361 0.213 0.162 0.213 0.361c0 0.199-0.095 0.361-0.213 0.361v0 0z"></path>
<path fill="#fff" d="M24.074 15.577c-0.118 0-0.213 0.162-0.213 0.361s0.095 0.361 0.213 0.361 0.213-0.162 0.213-0.361c0-0.199-0.095-0.361-0.213-0.361z"></path>
<path fill="#909393" d="M23.551 15.987v0c0.033-0.109 0.079-0.206 0.133-0.286 0.007-0.011 0.015-0.021 0.022-0.031 0.015-0.020 0.030-0.039 0.045-0.056 0.023-0.025 0.048-0.048 0.073-0.067 0.010-0.007 0.020-0.012 0.030-0.019 0.022-0.014 0.045-0.026 0.068-0.036 0.010-0.004 0.020-0.008 0.030-0.011 0.033-0.010 0.067-0.017 0.101-0.017s0.068 0.007 0.101 0.017c0.010 0.003 0.020 0.007 0.030 0.011 0.023 0.010 0.046 0.021 0.068 0.036 0.010 0.006 0.020 0.011 0.030 0.019 0.025 0.019 0.050 0.042 0.073 0.067 0.016 0.017 0.031 0.036 0.046 0.056 0.008 0.010 0.015 0.020 0.022 0.031 0.054 0.080 0.1 0.176 0.133 0.286v0l-0.503-2.274-0.503 2.274z"></path>
<path fill="#000" d="M17.391 16.405c-0.001-0.046-0.004-0.091-0.009-0.135-0-0.001-0-0.001-0-0.002-0.005-0.044-0.013-0.087-0.022-0.129-0-0.001-0.001-0.002-0.001-0.003-0.009-0.042-0.021-0.083-0.035-0.124-0-0.001-0.001-0.002-0.001-0.003-0.014-0.040-0.029-0.080-0.047-0.119-0-0.001-0.001-0.002-0.001-0.002-0.018-0.039-0.037-0.076-0.058-0.113-0.065-0.112-0.145-0.213-0.239-0.302-0.119-0.112-0.259-0.202-0.413-0.265-0.001-0-0.003-0.001-0.004-0.001-0.076-0.031-0.156-0.055-0.238-0.071-0.002-0-0.004-0-0.006-0.001-0.083-0.016-0.168-0.025-0.255-0.025-0.086 0-0.169 0.009-0.251 0.024-0.003 0.001-0.006 0.001-0.009 0.001-0.081 0.016-0.159 0.039-0.234 0.069-0.002 0.001-0.004 0.001-0.006 0.002-0.076 0.030-0.148 0.068-0.216 0.111-0 0-0.001 0-0.001 0-0.069 0.044-0.133 0.094-0.193 0.149l-0.001 0.004-0.005 0.001c-0.095 0.089-0.176 0.192-0.241 0.304-0.001 0.001-0.002 0.003-0.002 0.004-0.020 0.035-0.038 0.070-0.054 0.107-0.002 0.004-0.004 0.008-0.006 0.012-0.015 0.034-0.028 0.069-0.040 0.104-0.002 0.007-0.005 0.014-0.008 0.020-0.011 0.033-0.019 0.067-0.027 0.101-0.002 0.010-0.005 0.019-0.007 0.029-0.007 0.034-0.012 0.068-0.016 0.102-0.001 0.011-0.004 0.021-0.005 0.031-0.005 0.045-0.007 0.091-0.007 0.137 0 0.087 0.009 0.172 0.025 0.254 0 0.002 0 0.003 0.001 0.005 0.017 0.082 0.041 0.161 0.073 0.237 0 0.001 0.001 0.002 0.001 0.003 0.064 0.153 0.156 0.292 0.271 0.41 0.090 0.093 0.195 0.173 0.309 0.237 0.001 0 0.001 0.001 0.002 0.001 0.036 0.020 0.073 0.038 0.11 0.054 0.003 0.001 0.006 0.003 0.009 0.004 0.035 0.015 0.071 0.028 0.107 0.040 0.006 0.002 0.012 0.005 0.018 0.007 0.034 0.011 0.068 0.019 0.103 0.027 0.009 0.002 0.018 0.005 0.028 0.007 0.034 0.007 0.068 0.012 0.103 0.016 0.010 0.001 0.021 0.004 0.032 0.005 0.045 0.005 0.091 0.007 0.138 0.007 0.184 0 0.359-0.037 0.518-0.103 0.080-0.033 0.155-0.074 0.226-0.121 0.142-0.094 0.264-0.215 0.359-0.355 0.048-0.070 0.089-0.145 0.123-0.223 0.067-0.157 0.105-0.33 0.105-0.511 0-0.003-0-0.006-0-0.009s-0.001-0.007-0.001-0.010v0 0zM16.062 16.251c-0.276 0-0.5-0.221-0.5-0.494s0.224-0.493 0.5-0.493c0.276 0 0.5 0.221 0.5 0.493s-0.224 0.494-0.5 0.494v0 0z"></path>
<path fill="#fff" d="M16.062 15.264c-0.276 0-0.5 0.221-0.5 0.493s0.224 0.494 0.5 0.494c0.276 0 0.5-0.221 0.5-0.494s-0.224-0.493-0.5-0.493z"></path>
<path fill="#bbbcbd" d="M15.147 15.472v0l0.005-0.001 0.001-0.004 0.916-2.767v-0.648c0-0.005-0-0.007-0-0.007-0.51-0.103-1.035-0.16-1.572-0.16-0.179 0-0.357 0.008-0.534 0.019-0.026 0.002-0.052 0.003-0.077 0.005-0.92 0.069-1.825 0.306-2.663 0.684-0.719 0.324-1.387 0.751-1.988 1.258v0c-0 0-0.001 0.001-0.001 0.001-0.161 0.135-0.316 0.278-0.467 0.425-0.028 0.027-0.057 0.054-0.085 0.082-0.142 0.141-0.279 0.287-0.412 0.438-0.029 0.033-0.057 0.066-0.086 0.099-0.133 0.155-0.263 0.314-0.386 0.477-0.010 0.014-0.020 0.028-0.030 0.042-0.117 0.158-0.229 0.32-0.337 0.485-0.021 0.032-0.043 0.064-0.063 0.096-0.087 0.136-0.168 0.277-0.249 0.417h4.173l3.854-0.94z"></path>
<path fill="#e3dddb" d="M18.67 15.161c0.009-0.108 0.015-0.216 0.021-0.324 0.008-0.146 0.013-0.293 0.016-0.439 0.002-0.114 0.002-0.227 0.001-0.341 0-0.033 0.001-0.066 0-0.098-0.003-0.293-0.015-0.586-0.033-0.879-0.001-0.001-0.002-0.001-0.003-0.002s-0.001-0.001-0.001-0.002-0.005-0.003-0.009-0.005c-0.004-0.002-0.007-0.004-0.013-0.008-0.055-0.031-0.188-0.107-0.309-0.174-0.003-0.001-0.005-0.003-0.008-0.004-0.030-0.017-0.060-0.033-0.086-0.048-0.001-0-0.001-0.001-0.002-0.001-0.023-0.013-0.042-0.023-0.060-0.033-0.004-0.002-0.009-0.005-0.012-0.007-0.020-0.011-0.035-0.019-0.044-0.023-0.192-0.098-0.388-0.189-0.587-0.272-0.475-0.198-1.114-0.371-1.474-0.455v0.655l0.909 2.774c0.094 0.088 0.174 0.19 0.239 0.301v0c0.021 0.037 0.041 0.074 0.058 0.113 0 0.001 0.001 0.002 0.001 0.002 0.018 0.039 0.033 0.078 0.047 0.119 0 0.001 0.001 0.002 0.001 0.003 0.013 0.040 0.025 0.082 0.035 0.124 0 0.001 0.001 0.002 0.001 0.003 0.009 0.042 0.017 0.086 0.022 0.129 0 0.001 0 0.001 0 0.002 0.005 0.044 0.008 0.090 0.009 0.135l0.003 0.007h1.112c0.075-0.402 0.128-0.809 0.161-1.218 0.001-0.011 0.002-0.022 0.003-0.034z"></path>
<path fill="#fcb03f" d="M20.124 14.181c-0.001 0.002-0.002 0.003-0.003 0.005 0.001-0.002 0.002-0.003 0.003-0.005z"></path>
<path fill="#909393" d="M15.153 15.467v0c0.059-0.055 0.124-0.105 0.193-0.149 0 0 0-0 0.001-0 0.068-0.043 0.14-0.080 0.216-0.111 0.002-0.001 0.004-0.001 0.006-0.002 0.075-0.030 0.153-0.053 0.234-0.069 0.003-0.001 0.006-0.001 0.009-0.001 0.081-0.015 0.165-0.024 0.251-0.024 0.087 0 0.172 0.009 0.255 0.025 0.002 0 0.004 0.001 0.006 0.001 0.082 0.016 0.162 0.040 0.238 0.071 0.001 0.001 0.003 0.001 0.004 0.001 0.154 0.063 0.294 0.153 0.413 0.265l-0.001-0.002-0.908-2.772-0.916 2.767z"></path>
<path fill="#676a6a" d="M14.83 16.92c-0.031-0.076-0.056-0.155-0.073-0.237-0-0.002-0.001-0.004-0.001-0.005-0.016-0.082-0.025-0.167-0.025-0.254 0-0.046 0.003-0.092 0.007-0.137 0.001-0.011 0.003-0.021 0.005-0.031 0.005-0.034 0.009-0.069 0.016-0.102 0.002-0.010 0.005-0.019 0.007-0.029 0.008-0.034 0.017-0.068 0.027-0.101 0.002-0.007 0.005-0.013 0.008-0.020 0.012-0.035 0.025-0.070 0.040-0.104 0.002-0.004 0.004-0.008 0.006-0.012 0.017-0.037 0.035-0.073 0.054-0.107 0.001-0.001 0.002-0.003 0.002-0.004 0.065-0.113 0.147-0.215 0.241-0.304l-3.861 0.94 3.817 0.92c-0.114-0.118-0.207-0.256-0.271-0.41-0.001-0.001-0.001-0.002-0.001-0.003z"></path>
<path fill="#e3dddb" d="M23.502 16.207c0.002-0.017 0.006-0.033 0.009-0.049 0.010-0.054 0.021-0.107 0.036-0.157 0.002-0.006 0.002-0.012 0.004-0.018l0.503-2.274-0-1.297c-0.411-0.335-0.851-0.518-1.309-0.518-0.579 0-1.119 0.316-1.522 0.706-0.442 0.427-0.783 0.963-1.059 1.505-0.013 0.025-0.026 0.049-0.038 0.074 0.085 0.073 0.169 0.146 0.252 0.222 0.188 0.17 0.372 0.344 0.553 0.521 0.084 0.082 0.167 0.166 0.251 0.25 0.088 0.089 0.177 0.177 0.264 0.268 0.112 0.116 0.222 0.233 0.332 0.351 0.046 0.050 0.092 0.1 0.138 0.15 0.132 0.145 0.264 0.29 0.393 0.437l0 0c0.022 0.022 0.037 0.039 0.043 0.045h1.134c0-0.009 0.002-0.017 0.002-0.026 0.001-0.065 0.006-0.128 0.014-0.188z"></path>
<path fill="#e3dddb" d="M20.126 14.185c-0.001-0.002-0.001-0.003-0.002-0.004-0.001 0.002-0.002 0.003-0.003 0.005 0.001 0.001 0.005 0.005 0.006 0.006-0.001-0.002-0.001-0.004-0.002-0.007z"></path>
<path fill="#525353" d="M6.436 17.844c0.003-0.008 0.007-0.017 0.010-0.025 0.073-0.189 0.153-0.375 0.237-0.559 0.024-0.051 0.048-0.102 0.072-0.153 0.069-0.145 0.142-0.287 0.217-0.429 0.031-0.058 0.061-0.115 0.092-0.172 0.018-0.031 0.037-0.062 0.055-0.093 0.080-0.141 0.162-0.281 0.249-0.417 0.021-0.033 0.042-0.064 0.063-0.096 0.108-0.165 0.22-0.327 0.337-0.485 0.010-0.014 0.020-0.028 0.030-0.042 0.123-0.164 0.253-0.322 0.386-0.477 0.028-0.033 0.057-0.066 0.086-0.099 0.133-0.15 0.27-0.296 0.412-0.438 0.028-0.028 0.057-0.055 0.085-0.082 0.151-0.146 0.305-0.289 0.467-0.425 0-0 0.001-0.001 0.001-0.001 0.634-2.098 2.682-3.388 4.979-3.388 0.924 0 1.843 0.263 2.631 0.739 0.808 0.488 1.359 0.965 1.787 1.799 0.002 0.004 0.004 0.008 0.006 0.013 0.011 0.021 0.023 0.041 0.034 0.063 0 0.001 0.001 0.001 0.001 0.002s0.002 0.001 0.003 0.002c0.358 0.218 0.699 0.464 1.024 0.735 0.108 0.090 0.215 0.183 0.319 0.278 0.034 0.031 0.070 0.061 0.104 0.092 0.001-0.001 0.001-0.003 0.002-0.004s0.001-0.002 0.001-0.003c0.012-0.024 0.023-0.048 0.035-0.071 0.324-2.017 1.352-3.117 2.414-3.117 0.801 0 1.383 0.472 1.823 1.741l0.005 0.014c0 0 0.001 0.001 0.001 0.002 0.124 0.133 0.245 0.28 0.363 0.441l-0-0c0.002 0.003 0.005 0.006 0.007 0.009v0c0.006 0.018 0.012 0.037 0.018 0.056v-0l-0.017-0.066c-1.322-3.865-5.023-6.648-9.383-6.648-5.468 0-9.901 4.378-9.901 9.779 0 1.065 0.172 2.090 0.492 3.044 0-0.002 0.001-0.004 0.001-0.006 0.063-0.288 0.138-0.574 0.226-0.857 0.068-0.22 0.144-0.439 0.227-0.655z"></path>
<path fill="#fff" d="M24.921 16.426l-0.345 0.381c-0 0.001-0.001 0.002-0.001 0.003-0.013 0.050-0.029 0.097-0.047 0.142-0.005 0.012-0.010 0.023-0.015 0.035-0.014 0.032-0.028 0.062-0.044 0.091-0.009 0.015-0.017 0.031-0.026 0.046-0.014 0.023-0.030 0.043-0.045 0.064-0.023 0.029-0.046 0.055-0.071 0.078-0.010 0.009-0.020 0.020-0.031 0.028-0.019 0.015-0.040 0.028-0.060 0.040-0.008 0.004-0.016 0.009-0.024 0.012-0.050 0.024-0.101 0.038-0.155 0.038-0.314 0-0.568-0.43-0.568-0.962h-1.14c0 0 0 0.001 0.001 0.001 0.212 0.241 0.42 0.486 0.625 0.733 0.002 0.003 0.005 0.006 0.007 0.009 0.2 0.241 0.396 0.483 0.59 0.728 0.010 0.012 0.019 0.024 0.029 0.036 0.184 0.232 0.367 0.466 0.547 0.7 0.018 0.023 0.035 0.045 0.053 0.068 0.191 0.248 0.381 0.497 0.569 0.747 0.001 0.002 0.003 0.003 0.004 0.005 0.326-0.952 0.508-1.969 0.519-3.027l-0.32-0.012-0.050 0.016z"></path>
<path fill="#000" d="M13.886 11.909c0.026-0.002 0.052-0.004 0.077-0.005 0.177-0.012 0.354-0.019 0.534-0.019 0.537 0 1.061 0.057 1.572 0.16h0c0.36 0.084 0.999 0.257 1.474 0.455 0.199 0.083 0.395 0.174 0.587 0.272 0.009 0.005 0.024 0.013 0.044 0.023 0.003 0.002 0.008 0.005 0.012 0.007 0.018 0.010 0.037 0.020 0.060 0.033 0 0 0.001 0.001 0.002 0.001 0.027 0.015 0.056 0.031 0.086 0.048 0.003 0.001 0.005 0.003 0.008 0.004 0.122 0.068 0.257 0.145 0.309 0.174 0.007 0.004 0.010 0.005 0.013 0.008s0.008 0.005 0.009 0.005c-0.011-0.021-0.023-0.042-0.034-0.063-0.002-0.004-0.004-0.008-0.006-0.013-0.428-0.834-1.086-1.549-1.894-2.037-0.788-0.476-1.707-0.739-2.631-0.739-2.296 0-4.237 1.528-4.871 3.626 0.601-0.506 1.269-0.934 1.988-1.258 0.838-0.378 1.744-0.615 2.664-0.684z"></path>
<path fill="#bbbcbd" d="M24.772 13.197v0c-0.002-0.003-0.005-0.006-0.007-0.009l0 0c-0.117-0.161-0.238-0.308-0.363-0.441-0-0-0.001-0.001-0.001-0.001s0.001 0.001 0.001 0.001c-0.001-0.001-0.002-0.003-0.003-0.004-0.056-0.060-0.113-0.118-0.171-0.173-0.022-0.021-0.044-0.039-0.066-0.058-0.036-0.033-0.072-0.066-0.109-0.096v1.297l0.503 2.274c0.006 0.018 0.012 0.034 0.017 0.052l0.348 0.386 0.003-0.004h0.365c0-0.033 0.003-0.066 0.003-0.1v-0.001c-0-1.073-0.179-2.103-0.502-3.069v0c-0.006-0.018-0.011-0.037-0.018-0.056z"></path>
<path fill="#000" d="M21.222 12.599c0.404-0.39 0.943-0.706 1.522-0.706 0.458 0 0.898 0.183 1.309 0.518 0 0 0 0.003 0 0.004v0c0.037 0.030 0.073 0.063 0.109 0.096 0.022 0.020 0.044 0.038 0.066 0.058 0.058 0.055 0.115 0.112 0.171 0.173 0.001 0.001 0.002 0.003 0.003 0.004-0-0-0.001-0.001-0.001-0.001l-0-0-0.005-0.014c-0.44-1.27-1.149-2.095-1.95-2.095-1.063 0-1.964 1.453-2.287 3.47l0.003-0.003c0.276-0.542 0.617-1.079 1.059-1.505z"></path>
<path fill="#000" d="M19.786 24.997c0 0-0.143-0.112-0.325-0.318-0.043-0.048-0.086-0.1-0.132-0.159-0.034-0.044-0.069-0.091-0.104-0.141-0.023-0.033-0.046-0.068-0.069-0.104-0.069-0.107-0.124-0.238-0.184-0.367-0.070-0.149-0.070-0.249-0.11-0.388-0.029-0.1-0.052-0.204-0.070-0.312-0.027-0.162-0.039-0.334-0.033-0.515 0.003-0.099 0.013-0.202 0.029-0.307 0.015-0.101 0.035-0.204 0.061-0.309 0.080-0.316 0.218-0.653 0.434-1.009 0.001-0.001 0.054-0.121 0.055-0.122 0.071-0.116 0.086-0.111 0.153-0.223 0.945-1.574 1.454-2.765 1.205-4.598-0.018-0.131-0.067-0.424-0.093-0.562-0.014 0.095-0.067 0.399-0.069 0.405-0.009 0.042-0.035 0.087-0.045 0.116-0.41 1.199-1.056 2.082-1.985 3.078-0.126 0.135-0.258 0.272-0.393 0.41-0.227 0.233-0.465 0.47-0.717 0.718-0.101 0.099-0.203 0.199-0.308 0.301-0.096 0.094-0.215 0.294-0.357 0.442-0.088 0.243-0.188 0.517-0.272 0.805-0.038-0.014-0.074-0.027-0.113-0.042-1.805-0.69-3.014-1.611-3.014-1.611s0.93 1.196 2.497 2.319c0.152 0.109 0.301 0.203 0.448 0.286-0.065 1.010 0.387 1.98 2.424 2.27 0.344 0.049 0.697 0.047 1.052 0.007-0.004-0.010 0.020-0.010 0.018-0.016s0.019-0.021 0.019-0.021z"></path>
<path fill="#9f2254" d="M18.697 22.396c1.809 0.288 4.485 0.241 7.264-1.044 0.067-0.031 0.141 0.051 0.208 0.018 0 0-1.899 1.916-4.167 2.999-0.066 0.032-0.132 0.065-0.199 0.095-0.219 0.099-0.442 0.185-0.666 0.265-0.439 0.156-0.884 0.274-1.325 0.329-0.020 0.003-0.041 0.006-0.061 0.009-0.004-0.010-0.006-0.019-0.008-0.025s-0.003-0.009-0.003-0.009-0.143-0.112-0.325-0.319c-0.043-0.048-0.086-0.1-0.132-0.159-0.034-0.044-0.069-0.091-0.104-0.141-0.023-0.033-0.046-0.068-0.069-0.104-0.069-0.107-0.135-0.226-0.196-0.355s-0.114-0.269-0.157-0.418c-0.029-0.1-0.053-0.204-0.070-0.312-0.027-0.162-0.039-0.334-0.033-0.515 0.003-0.1 0.013-0.202 0.029-0.307l0.015-0.007z"></path>
<path fill="#fcb03f" d="M17.4 20.362c0.252-0.248 0.49-0.485 0.718-0.718 0.135-0.138 0.267-0.275 0.393-0.41 0.929-0.996 1.611-1.928 2.022-3.128 0.010-0.028 0.019-0.066 0.029-0.108 0.002-0.007 0.003-0.013 0.004-0.020 0.010-0.045 0.019-0.095 0.028-0.151 0.004-0.039 0.127-0.117 0.13-0.153-0.103-0.522-0.34-1.071-0.599-1.49 0.001 0.002 0.001 0.003 0.002 0.005-0.001-0.001-0.004-0.004-0.005-0.005-0.034-0.032-0.069-0.061-0.104-0.092-0.104-0.095-0.211-0.188-0.319-0.278-0.325-0.27-0.666-0.517-1.024-0.735 0.018 0.293 0.030 0.587 0.033 0.879 0 0.033-0 0.066-0 0.098 0.001 0.114 0.001 0.227-0.001 0.341-0.003 0.146-0.008 0.293-0.016 0.439-0.006 0.108-0.013 0.216-0.021 0.324-0.001 0.011-0.002 0.022-0.003 0.034-0.033 0.409-0.086 0.816-0.161 1.218l-0.131 0.61c-0.273 1.092-0.827 2.083-1.282 3.106-0.121 0.271-0.235 0.546-0.336 0.825-0.009 0.026-0.019 0.052-0.028 0.079 0.142-0.148 0.268-0.275 0.364-0.369 0.104-0.102 0.207-0.202 0.308-0.301z"></path>
<path fill="#df0067" d="M24.147 18.629c-0.181-0.234-0.363-0.468-0.547-0.7-0.009-0.012-0.019-0.024-0.029-0.036-0.194-0.244-0.391-0.487-0.59-0.728-0.003-0.003-0.005-0.006-0.007-0.009-0.205-0.247-0.413-0.492-0.625-0.733-0.013-0.015-0.027-0.031-0.040-0.046-0.129-0.147-0.261-0.292-0.393-0.437-0.046-0.050-0.092-0.1-0.138-0.15-0.11-0.118-0.22-0.235-0.332-0.351-0.087-0.090-0.175-0.179-0.264-0.268-0.083-0.084-0.166-0.168-0.251-0.25-0.182-0.177-0.365-0.351-0.553-0.521-0.083-0.075-0.167-0.149-0.252-0.222-0 0.001-0.001 0.002-0.001 0.003 0.179 0.508 0.383 1.022 0.485 1.552 0.027 0.138 0.049 0.272 0.066 0.403 0.249 1.833-0.345 3.030-1.29 4.604-0.068 0.113-0.137 0.228-0.208 0.345-0.216 0.356-0.354 0.692-0.434 1.009-0.027 0.105-0.047 0.209-0.061 0.309 1.852 0.295 4.637 0.35 7.487-1.033 0 0-0.559-0.811-1.4-1.926-0.188-0.249-0.377-0.498-0.569-0.747-0.017-0.023-0.035-0.045-0.053-0.068z"></path>
<path fill="#fff" d="M11.845 25.44c0.090 0.034 0.182 0.065 0.274 0.097 1.024 0.355 2.124 0.55 3.271 0.55 1.308 0 2.555-0.253 3.698-0.708 0.060-0.024 0.12-0.050 0.179-0.076 0.097-0.041 0.193-0.083 0.289-0.126 0.085-0.039 0.171-0.078 0.255-0.12-0.020 0.003-0.041 0.006-0.061 0.009-0.355 0.040-0.708 0.042-1.052-0.007-2.037-0.289-2.489-1.259-2.424-2.27-0.146-0.083-0.296-0.178-0.448-0.286-1.567-1.123-2.497-2.319-2.497-2.319s1.209 0.921 3.014 1.611c0.039 0.015 0.075 0.028 0.113 0.042 0.084-0.288 0.184-0.562 0.272-0.805 0.009-0.026 0.019-0.053 0.028-0.079 0.1-0.279 0.215-0.554 0.336-0.825 0.456-1.023 1.010-2.014 1.282-3.106l0.131-0.61-1.114 0c0 0.001 0 0.001 0 0.002l-0 0c0 0.003 0 0.006 0 0.009 0 0.181-0.037 0.354-0.105 0.511-0.034 0.079-0.075 0.153-0.123 0.223-0.096 0.14-0.218 0.26-0.359 0.355-0.071 0.047-0.146 0.088-0.226 0.121-0.159 0.067-0.334 0.103-0.518 0.103-0.047 0-0.093-0.003-0.138-0.007-0.011-0.001-0.021-0.003-0.032-0.005-0.035-0.004-0.069-0.009-0.103-0.016-0.009-0.002-0.019-0.005-0.028-0.007-0.035-0.008-0.069-0.016-0.103-0.027-0.006-0.002-0.012-0.005-0.018-0.007-0.036-0.012-0.072-0.025-0.107-0.040-0.003-0.001-0.006-0.003-0.009-0.004-0.038-0.017-0.075-0.034-0.11-0.054l-0.002-0.001c-0.114-0.064-0.219-0.144-0.309-0.237l-3.817-0.92h-4.166c-0.018 0.031-0.038 0.061-0.055 0.093-0.032 0.057-0.062 0.115-0.092 0.172-0.075 0.141-0.148 0.284-0.217 0.429-0.024 0.051-0.048 0.102-0.072 0.153-0.084 0.184-0.164 0.37-0.237 0.559-0.003 0.008-0.007 0.017-0.010 0.025-0.083 0.216-0.159 0.435-0.227 0.655-0.088 0.283-0.163 0.569-0.226 0.857 0.656 1.976 1.932 3.673 3.6 4.87 0.049 0.035 0.1 0.066 0.149 0.1 0.282 0.195 0.574 0.377 0.876 0.542 0.397 0.217 0.81 0.41 1.238 0.572z"></path>
</svg>
